<svg xmlns="http://www.w3.org/2000/svg" viewBox="0 0 256 256" role="img" aria-label="Putri Aulia Santoso profile portrait">
  <defs>
    <linearGradient id="bg" x1="0" y1="0" x2="1" y2="1"><stop stop-color="#111827"/><stop offset=".58" stop-color="#f59e0b"/><stop offset="1" stop-color="#60a5fa"/></linearGradient>
    <radialGradient id="glow" cx="30%" cy="20%" r="70%"><stop stop-color="#ffffff" stop-opacity=".46"/><stop offset="1" stop-color="#ffffff" stop-opacity="0"/></radialGradient>
    <clipPath id="round"><rect width="256" height="256" rx="56"/></clipPath>
  </defs>
  <g clip-path="url(#round)">
    <rect width="256" height="256" fill="url(#bg)"/>
    <rect width="256" height="256" fill="url(#glow)"/>
    <circle cx="215" cy="38" r="44" fill="#fff" opacity=".12"/>
    <circle cx="39" cy="212" r="62" fill="#000" opacity=".10"/>
    <path d="M49 238c8-42 39-69 79-69s71 27 79 69H49z" fill="#111827"/>
    <path d="M102 174h52l13 64H89l13-64z" fill="#f8fafc"/>
    <path d="M111 169c1 15 8 24 17 24s16-9 17-24v-13h-34v13z" fill="#8f553d"/>
    <path d="M72 105c2-39 27-63 58-63 36 0 55 27 57 60-16-14-31-25-62-26-25-1-38 9-53 29z" fill="#1f2937"/><path d="M83 78c14-23 46-34 74-14 9 7 17 19 22 36-21-21-44-28-73-22-8 2-15 3-23 0z" fill="#020617" opacity=".2"/>
    <ellipse cx="128" cy="125" rx="48" ry="56" fill="#8f553d"/>
    <path d="M83 111c16-9 25-29 50-28 24 1 39 15 48 31-6-28-24-48-55-48-29 0-48 18-43 45z" fill="#1f2937"/>
    <circle cx="108" cy="128" r="4" fill="#111827"/><circle cx="148" cy="128" r="4" fill="#111827"/>
    <path d="M128 132l-5 15h11" stroke="#9a5f45" stroke-width="3" stroke-linecap="round" stroke-linejoin="round" fill="none" opacity=".42"/>
    <path d="M116 154c8 8 18 9 28 0" stroke="#7c2d12" stroke-width="4" stroke-linecap="round" fill="none" opacity=".66"/>
    
    <path d="M86 238l22-54 20 25 20-25 22 54H86z" fill="#ffffff" opacity=".09"/>
  </g>
</svg>